<?xml version="1.0" standalone="no"?><!DOCTYPE svg PUBLIC "-//W3C//DTD SVG 1.1//EN" "http://www.w3.org/Graphics/SVG/1.1/DTD/svg11.dtd"><svg t="1768772913852" class="icon" viewBox="0 0 1024 1024" version="1.1" xmlns="http://www.w3.org/2000/svg" p-id="1971" width="200" height="200" xmlns:xlink="http://www.w3.org/1999/xlink"><path d="M574.336 643.968c-51.072-0.128-99.968-20.48-135.936-56.704l-25.216-25.216 46.336-46.336 25.216 25.216c47.36 47.616 123.648 50.176 174.208 5.888l1.536-1.28c1.408-1.28 2.816-2.56 4.096-3.968l103.68-103.68c23.936-23.808 37.504-56.32 37.504-90.112 0-33.792-13.44-66.304-37.504-90.112l-1.92-1.92c-23.808-23.936-56.32-37.504-90.112-37.504-33.792 0-66.304 13.44-90.112 37.504l-53.12 52.736c-1.408 1.28-2.688 2.688-3.968 4.096l-20.48 25.6-51.072-40.96 21.12-25.728c2.816-3.328 5.76-6.528 8.832-9.472l52.864-52.864c36.224-36.352 85.376-56.832 136.704-56.832 51.2 0 100.352 20.48 136.576 56.704l1.92 1.92c36.352 36.224 56.704 85.248 56.704 136.576 0 51.2-20.48 100.352-56.704 136.576l-103.68 103.68c-2.816 2.816-5.632 5.504-8.704 8.064-35.328 31.36-81.024 48.896-128.256 49.152l-0.512-1.024z m0 0" p-id="1972" fill="#8de93f"></path><path d="M346.24 873.344c-51.2 0.128-100.352-20.352-136.448-56.704l-1.92-1.92c-36.352-36.224-56.832-85.376-56.832-136.704 0-51.2 20.48-100.352 56.704-136.576l103.68-103.68c2.816-2.816 5.632-5.504 8.704-8.064 76.288-67.584 192.128-64.128 264.32 8.064l25.216 25.856-46.336 46.336-25.216-25.216c-47.36-47.616-123.648-50.176-174.208-5.888l-1.536 1.28c-1.408 1.28-2.816 2.56-4.096 3.968l-103.68 103.68c-23.936 23.808-37.504 56.32-37.504 90.112 0 33.792 13.44 66.304 37.504 90.112l1.92 1.92c23.808 23.936 56.32 37.504 90.112 37.504 33.792 0 66.304-13.44 90.112-37.504l52.864-52.864c1.408-1.28 2.688-2.688 3.968-4.096l20.48-25.6 51.328 40.96-21.248 25.728c-2.816 3.328-5.76 6.528-8.832 9.472l-52.864 53.12c-36.096 36.224-85.12 56.704-136.192 56.704z m0 0" p-id="1973" fill="#8de93f"></path></svg>